# xmcd
#
# Track frame offsets:
#	150
#	19693
#	38533
#	53284
#	80577
#	96467
#	121977
#	137520
#	155819
#	178030
#	191935
#
# Disc length: 2899 seconds
# Revision: 0
# Processed by: cddbd v1.5.2PL0 Copyright (c) Steve Scherf et al.
# Submitted via: dBpowerAMP V12.0
#
DISCID=8c0b510b
DTITLE=Steed Kettles and Jeff Eno - The Jake Leg Chronicles
DYEAR=2014
DGENRE=Country
TTITLE0=Poor White ]rash
TTITLE1=I Think Too Much
TTITLE2=I'm Coming Home
TTITLE3=Blood Brothers
TTITLE4=American Fool
TTITLE5=Sticks and Stones
TTITLE6=The Rest is History
TTITLE7=One More Chance
TTITLE8=A Song for You
TTITLE9=We Believe 
TTITLE10=Sticks and Stones - Redux
EXTD=
EXTT0=
EXTT1=
EXTT2=
EXTT3=
EXTT4=
EXTT5=
EXTT6=
EXTT7=
EXTT8=
EXTT9=
EXTT10=
PLAYORDER=
